<mxfile host="app.diagrams.net" modified="2023-10-21T19:55:00.587Z" agent="Mozilla/5.0 (Windows NT 10.0; Win64; x64) AppleWebKit/537.36 (KHTML, like Gecko) Chrome/118.0.0.0 Safari/537.36" etag="WCRxTowgaqzfkgLhxvq8" version="22.0.6" type="github">
  <diagram name="第 1 页" id="3LM3e0GyEwXYFz6J5TRM">
    <mxGraphModel dx="988" dy="582" grid="1" gridSize="10" guides="1" tooltips="1" connect="1" arrows="1" fold="1" page="1" pageScale="1" pageWidth="1169" pageHeight="827" math="1" shadow="0">
      <root>
        <mxCell id="0" />
        <mxCell id="1" parent="0" />
        <mxCell id="kjkO8vURXtPyXDGjNqjl-2" value="condition" style="shape=process;whiteSpace=wrap;html=1;backgroundOutline=1;direction=east;fillColor=#f8cecc;strokeColor=#b85450;" parent="1" vertex="1">
          <mxGeometry x="1000" y="415" width="80" height="30" as="geometry" />
        </mxCell>
        <mxCell id="kjkO8vURXtPyXDGjNqjl-3" value="" style="endArrow=classic;html=1;rounded=0;exitX=0;exitY=0.5;exitDx=0;exitDy=0;" parent="1" source="kjkO8vURXtPyXDGjNqjl-2" target="kjkO8vURXtPyXDGjNqjl-4" edge="1">
          <mxGeometry width="50" height="50" relative="1" as="geometry">
            <mxPoint x="794" y="440" as="sourcePoint" />
            <mxPoint x="714" y="430.0000000000001" as="targetPoint" />
          </mxGeometry>
        </mxCell>
        <mxCell id="kjkO8vURXtPyXDGjNqjl-21" value="" style="edgeStyle=orthogonalEdgeStyle;rounded=0;orthogonalLoop=1;jettySize=auto;html=1;entryX=0.5;entryY=0;entryDx=0;entryDy=0;" parent="1" source="kjkO8vURXtPyXDGjNqjl-4" target="kjkO8vURXtPyXDGjNqjl-13" edge="1">
          <mxGeometry relative="1" as="geometry" />
        </mxCell>
        <mxCell id="kjkO8vURXtPyXDGjNqjl-4" value="Encoder" style="verticalLabelPosition=middle;verticalAlign=middle;html=1;shape=trapezoid;perimeter=trapezoidPerimeter;whiteSpace=wrap;size=0.23;arcSize=10;flipV=1;labelPosition=center;align=center;rotation=90;fillColor=#f5f5f5;fontColor=#333333;strokeColor=#666666;direction=east;" parent="1" vertex="1">
          <mxGeometry x="890" y="410" width="100" height="40" as="geometry" />
        </mxCell>
        <mxCell id="kjkO8vURXtPyXDGjNqjl-13" value="conv" style="rounded=0;whiteSpace=wrap;html=1;direction=south;flipH=1;" parent="1" vertex="1">
          <mxGeometry x="860" y="370" width="30" height="120" as="geometry" />
        </mxCell>
        <mxCell id="kjkO8vURXtPyXDGjNqjl-22" value="" style="edgeStyle=orthogonalEdgeStyle;rounded=0;orthogonalLoop=1;jettySize=auto;html=1;" parent="1" source="kjkO8vURXtPyXDGjNqjl-14" target="kjkO8vURXtPyXDGjNqjl-20" edge="1">
          <mxGeometry relative="1" as="geometry" />
        </mxCell>
        <mxCell id="kjkO8vURXtPyXDGjNqjl-14" value="RB" style="rounded=0;whiteSpace=wrap;html=1;direction=south;flipH=1;" parent="1" vertex="1">
          <mxGeometry x="800" y="370" width="30" height="120" as="geometry" />
        </mxCell>
        <mxCell id="kjkO8vURXtPyXDGjNqjl-15" value="RB" style="rounded=0;whiteSpace=wrap;html=1;direction=south;flipH=1;" parent="1" vertex="1">
          <mxGeometry x="830" y="370" width="30" height="120" as="geometry" />
        </mxCell>
        <mxCell id="kjkO8vURXtPyXDGjNqjl-34" style="edgeStyle=orthogonalEdgeStyle;rounded=0;orthogonalLoop=1;jettySize=auto;html=1;entryX=0.5;entryY=0;entryDx=0;entryDy=0;" parent="1" source="kjkO8vURXtPyXDGjNqjl-20" target="kjkO8vURXtPyXDGjNqjl-31" edge="1">
          <mxGeometry relative="1" as="geometry" />
        </mxCell>
        <mxCell id="kjkO8vURXtPyXDGjNqjl-57" style="edgeStyle=orthogonalEdgeStyle;rounded=0;orthogonalLoop=1;jettySize=auto;html=1;entryX=0.5;entryY=1;entryDx=0;entryDy=0;" parent="1" source="kjkO8vURXtPyXDGjNqjl-20" edge="1">
          <mxGeometry relative="1" as="geometry">
            <mxPoint x="763" y="290" as="targetPoint" />
          </mxGeometry>
        </mxCell>
        <mxCell id="kjkO8vURXtPyXDGjNqjl-88" style="edgeStyle=orthogonalEdgeStyle;rounded=0;orthogonalLoop=1;jettySize=auto;html=1;entryX=0.5;entryY=0;entryDx=0;entryDy=0;" parent="1" source="kjkO8vURXtPyXDGjNqjl-20" target="kjkO8vURXtPyXDGjNqjl-87" edge="1">
          <mxGeometry relative="1" as="geometry">
            <Array as="points">
              <mxPoint x="740" y="430" />
              <mxPoint x="740" y="538" />
            </Array>
          </mxGeometry>
        </mxCell>
        <mxCell id="kjkO8vURXtPyXDGjNqjl-20" value="" style="verticalLabelPosition=bottom;verticalAlign=top;html=1;shape=mxgraph.flowchart.or;fillColor=#d5e8d4;strokeColor=#82b366;" parent="1" vertex="1">
          <mxGeometry x="753" y="420" width="20" height="20" as="geometry" />
        </mxCell>
        <mxCell id="kjkO8vURXtPyXDGjNqjl-54" style="edgeStyle=orthogonalEdgeStyle;rounded=0;orthogonalLoop=1;jettySize=auto;html=1;entryX=0.5;entryY=1;entryDx=0;entryDy=0;entryPerimeter=0;" parent="1" source="kjkO8vURXtPyXDGjNqjl-28" target="kjkO8vURXtPyXDGjNqjl-20" edge="1">
          <mxGeometry relative="1" as="geometry" />
        </mxCell>
        <mxCell id="kjkO8vURXtPyXDGjNqjl-28" value="Text Embedding" style="shape=process;whiteSpace=wrap;html=1;backgroundOutline=1;fillColor=#d5e8d4;strokeColor=#82b366;" parent="1" vertex="1">
          <mxGeometry x="1000" y="500" width="120" height="30" as="geometry" />
        </mxCell>
        <mxCell id="kjkO8vURXtPyXDGjNqjl-31" value="conv" style="rounded=0;whiteSpace=wrap;html=1;direction=south;flipH=1;" parent="1" vertex="1">
          <mxGeometry x="693" y="370" width="30" height="120" as="geometry" />
        </mxCell>
        <mxCell id="kjkO8vURXtPyXDGjNqjl-39" style="edgeStyle=orthogonalEdgeStyle;rounded=0;orthogonalLoop=1;jettySize=auto;html=1;" parent="1" source="kjkO8vURXtPyXDGjNqjl-32" target="kjkO8vURXtPyXDGjNqjl-38" edge="1">
          <mxGeometry relative="1" as="geometry" />
        </mxCell>
        <mxCell id="kjkO8vURXtPyXDGjNqjl-32" value="RB" style="rounded=0;whiteSpace=wrap;html=1;direction=south;flipH=1;" parent="1" vertex="1">
          <mxGeometry x="633" y="370" width="30" height="120" as="geometry" />
        </mxCell>
        <mxCell id="kjkO8vURXtPyXDGjNqjl-33" value="RB" style="rounded=0;whiteSpace=wrap;html=1;direction=south;flipH=1;" parent="1" vertex="1">
          <mxGeometry x="663" y="370" width="30" height="120" as="geometry" />
        </mxCell>
        <mxCell id="kjkO8vURXtPyXDGjNqjl-37" value="$$F_1$$" style="text;html=1;strokeColor=none;fillColor=none;align=center;verticalAlign=middle;whiteSpace=wrap;rounded=0;" parent="1" vertex="1">
          <mxGeometry x="740" y="260" width="60" height="30" as="geometry" />
        </mxCell>
        <mxCell id="kjkO8vURXtPyXDGjNqjl-56" style="edgeStyle=orthogonalEdgeStyle;rounded=0;orthogonalLoop=1;jettySize=auto;html=1;entryX=0.5;entryY=0;entryDx=0;entryDy=0;" parent="1" source="kjkO8vURXtPyXDGjNqjl-38" target="kjkO8vURXtPyXDGjNqjl-44" edge="1">
          <mxGeometry relative="1" as="geometry" />
        </mxCell>
        <mxCell id="kjkO8vURXtPyXDGjNqjl-71" style="edgeStyle=orthogonalEdgeStyle;rounded=0;orthogonalLoop=1;jettySize=auto;html=1;" parent="1" source="kjkO8vURXtPyXDGjNqjl-38" target="kjkO8vURXtPyXDGjNqjl-72" edge="1">
          <mxGeometry relative="1" as="geometry">
            <mxPoint x="597" y="300" as="targetPoint" />
          </mxGeometry>
        </mxCell>
        <mxCell id="kjkO8vURXtPyXDGjNqjl-38" value="" style="verticalLabelPosition=bottom;verticalAlign=top;html=1;shape=mxgraph.flowchart.or;fillColor=#f8cecc;strokeColor=#b85450;" parent="1" vertex="1">
          <mxGeometry x="587" y="420" width="20" height="20" as="geometry" />
        </mxCell>
        <mxCell id="kjkO8vURXtPyXDGjNqjl-41" value="$$\times&lt;br&gt;W_1$$" style="text;html=1;strokeColor=none;fillColor=none;align=center;verticalAlign=middle;whiteSpace=wrap;rounded=0;" parent="1" vertex="1">
          <mxGeometry x="753" y="320" width="60" height="30" as="geometry" />
        </mxCell>
        <mxCell id="kjkO8vURXtPyXDGjNqjl-44" value="conv" style="rounded=0;whiteSpace=wrap;html=1;direction=south;flipH=1;" parent="1" vertex="1">
          <mxGeometry x="529" y="370" width="30" height="120" as="geometry" />
        </mxCell>
        <mxCell id="kjkO8vURXtPyXDGjNqjl-45" style="edgeStyle=orthogonalEdgeStyle;rounded=0;orthogonalLoop=1;jettySize=auto;html=1;" parent="1" source="kjkO8vURXtPyXDGjNqjl-46" target="kjkO8vURXtPyXDGjNqjl-49" edge="1">
          <mxGeometry relative="1" as="geometry" />
        </mxCell>
        <mxCell id="kjkO8vURXtPyXDGjNqjl-46" value="RB" style="rounded=0;whiteSpace=wrap;html=1;direction=south;flipH=1;" parent="1" vertex="1">
          <mxGeometry x="469" y="370" width="30" height="120" as="geometry" />
        </mxCell>
        <mxCell id="kjkO8vURXtPyXDGjNqjl-47" value="RB" style="rounded=0;whiteSpace=wrap;html=1;direction=south;flipH=1;" parent="1" vertex="1">
          <mxGeometry x="499" y="370" width="30" height="120" as="geometry" />
        </mxCell>
        <mxCell id="kjkO8vURXtPyXDGjNqjl-78" style="edgeStyle=orthogonalEdgeStyle;rounded=0;orthogonalLoop=1;jettySize=auto;html=1;entryX=0.5;entryY=0;entryDx=0;entryDy=0;" parent="1" source="kjkO8vURXtPyXDGjNqjl-49" target="kjkO8vURXtPyXDGjNqjl-74" edge="1">
          <mxGeometry relative="1" as="geometry" />
        </mxCell>
        <mxCell id="kjkO8vURXtPyXDGjNqjl-79" style="edgeStyle=orthogonalEdgeStyle;rounded=0;orthogonalLoop=1;jettySize=auto;html=1;entryX=0.5;entryY=1;entryDx=0;entryDy=0;" parent="1" source="kjkO8vURXtPyXDGjNqjl-49" target="kjkO8vURXtPyXDGjNqjl-80" edge="1">
          <mxGeometry relative="1" as="geometry">
            <mxPoint x="426" y="290" as="targetPoint" />
          </mxGeometry>
        </mxCell>
        <mxCell id="kjkO8vURXtPyXDGjNqjl-49" value="" style="verticalLabelPosition=bottom;verticalAlign=top;html=1;shape=mxgraph.flowchart.or;fillColor=#f8cecc;strokeColor=#b85450;" parent="1" vertex="1">
          <mxGeometry x="416" y="420" width="20" height="20" as="geometry" />
        </mxCell>
        <mxCell id="kjkO8vURXtPyXDGjNqjl-63" value="" style="verticalLabelPosition=bottom;verticalAlign=top;html=1;shape=mxgraph.flowchart.or;fillColor=#dae8fc;strokeColor=#6c8ebf;" parent="1" vertex="1">
          <mxGeometry x="430" y="560" width="20" height="20" as="geometry" />
        </mxCell>
        <mxCell id="kjkO8vURXtPyXDGjNqjl-66" value="Coord Attention for enhance feature" style="text;html=1;strokeColor=none;fillColor=none;align=center;verticalAlign=middle;whiteSpace=wrap;rounded=0;" parent="1" vertex="1">
          <mxGeometry x="450" y="560" width="100" height="30" as="geometry" />
        </mxCell>
        <mxCell id="kjkO8vURXtPyXDGjNqjl-67" value="" style="verticalLabelPosition=bottom;verticalAlign=top;html=1;shape=mxgraph.flowchart.or;fillColor=#d5e8d4;strokeColor=#82b366;" parent="1" vertex="1">
          <mxGeometry x="580" y="560" width="20" height="20" as="geometry" />
        </mxCell>
        <mxCell id="kjkO8vURXtPyXDGjNqjl-68" value="Cross Attention" style="text;html=1;strokeColor=none;fillColor=none;align=center;verticalAlign=middle;whiteSpace=wrap;rounded=0;" parent="1" vertex="1">
          <mxGeometry x="600" y="560" width="100" height="30" as="geometry" />
        </mxCell>
        <mxCell id="kjkO8vURXtPyXDGjNqjl-72" value="$$F_2$$" style="text;html=1;strokeColor=none;fillColor=none;align=center;verticalAlign=middle;whiteSpace=wrap;rounded=0;" parent="1" vertex="1">
          <mxGeometry x="567" y="260" width="60" height="30" as="geometry" />
        </mxCell>
        <mxCell id="kjkO8vURXtPyXDGjNqjl-73" value="$$\times&lt;br&gt;W_2$$" style="text;html=1;strokeColor=none;fillColor=none;align=center;verticalAlign=middle;whiteSpace=wrap;rounded=0;" parent="1" vertex="1">
          <mxGeometry x="590" y="320" width="60" height="30" as="geometry" />
        </mxCell>
        <mxCell id="kjkO8vURXtPyXDGjNqjl-74" value="conv" style="rounded=0;whiteSpace=wrap;html=1;direction=south;flipH=1;" parent="1" vertex="1">
          <mxGeometry x="356" y="370" width="30" height="120" as="geometry" />
        </mxCell>
        <mxCell id="kjkO8vURXtPyXDGjNqjl-82" style="edgeStyle=orthogonalEdgeStyle;rounded=0;orthogonalLoop=1;jettySize=auto;html=1;entryX=0.5;entryY=0;entryDx=0;entryDy=0;" parent="1" source="kjkO8vURXtPyXDGjNqjl-75" target="kjkO8vURXtPyXDGjNqjl-83" edge="1">
          <mxGeometry relative="1" as="geometry">
            <mxPoint x="250" y="430" as="targetPoint" />
          </mxGeometry>
        </mxCell>
        <mxCell id="kjkO8vURXtPyXDGjNqjl-75" value="RB" style="rounded=0;whiteSpace=wrap;html=1;direction=south;flipH=1;" parent="1" vertex="1">
          <mxGeometry x="296" y="370" width="30" height="120" as="geometry" />
        </mxCell>
        <mxCell id="kjkO8vURXtPyXDGjNqjl-76" value="RB" style="rounded=0;whiteSpace=wrap;html=1;direction=south;flipH=1;" parent="1" vertex="1">
          <mxGeometry x="326" y="370" width="30" height="120" as="geometry" />
        </mxCell>
        <mxCell id="kjkO8vURXtPyXDGjNqjl-80" value="$$F_3$$" style="text;html=1;strokeColor=none;fillColor=none;align=center;verticalAlign=middle;whiteSpace=wrap;rounded=0;" parent="1" vertex="1">
          <mxGeometry x="396" y="260" width="60" height="30" as="geometry" />
        </mxCell>
        <mxCell id="kjkO8vURXtPyXDGjNqjl-81" value="$$\times&lt;br&gt;W_3$$" style="text;html=1;strokeColor=none;fillColor=none;align=center;verticalAlign=middle;whiteSpace=wrap;rounded=0;" parent="1" vertex="1">
          <mxGeometry x="420" y="320" width="60" height="30" as="geometry" />
        </mxCell>
        <mxCell id="kjkO8vURXtPyXDGjNqjl-91" style="edgeStyle=orthogonalEdgeStyle;rounded=0;orthogonalLoop=1;jettySize=auto;html=1;entryX=1;entryY=0.5;entryDx=0;entryDy=0;entryPerimeter=0;" parent="1" source="kjkO8vURXtPyXDGjNqjl-83" target="kjkO8vURXtPyXDGjNqjl-86" edge="1">
          <mxGeometry relative="1" as="geometry" />
        </mxCell>
        <mxCell id="kjkO8vURXtPyXDGjNqjl-83" value="conv" style="rounded=0;whiteSpace=wrap;html=1;direction=south;flipH=1;fillColor=#f8cecc;strokeColor=#b85450;" parent="1" vertex="1">
          <mxGeometry x="238" y="370" width="30" height="120" as="geometry" />
        </mxCell>
        <mxCell id="kjkO8vURXtPyXDGjNqjl-92" style="edgeStyle=orthogonalEdgeStyle;rounded=0;orthogonalLoop=1;jettySize=auto;html=1;" parent="1" source="kjkO8vURXtPyXDGjNqjl-86" target="kjkO8vURXtPyXDGjNqjl-93" edge="1">
          <mxGeometry relative="1" as="geometry">
            <mxPoint x="198" y="300" as="targetPoint" />
          </mxGeometry>
        </mxCell>
        <mxCell id="kjkO8vURXtPyXDGjNqjl-86" value="" style="verticalLabelPosition=bottom;verticalAlign=top;html=1;shape=mxgraph.flowchart.summing_function;fillColor=#f8cecc;strokeColor=#b85450;" parent="1" vertex="1">
          <mxGeometry x="188" y="420" width="20" height="20" as="geometry" />
        </mxCell>
        <mxCell id="kjkO8vURXtPyXDGjNqjl-90" style="edgeStyle=orthogonalEdgeStyle;rounded=0;orthogonalLoop=1;jettySize=auto;html=1;entryX=0.5;entryY=1;entryDx=0;entryDy=0;entryPerimeter=0;" parent="1" source="kjkO8vURXtPyXDGjNqjl-87" target="kjkO8vURXtPyXDGjNqjl-86" edge="1">
          <mxGeometry relative="1" as="geometry" />
        </mxCell>
        <mxCell id="kjkO8vURXtPyXDGjNqjl-87" value="conv+downsample" style="rounded=0;whiteSpace=wrap;html=1;direction=south;flipH=1;fillColor=#f8cecc;strokeColor=#b85450;" parent="1" vertex="1">
          <mxGeometry x="135.5" y="520" width="125" height="35" as="geometry" />
        </mxCell>
        <mxCell id="kjkO8vURXtPyXDGjNqjl-93" value="$$F_4$$" style="text;html=1;strokeColor=none;fillColor=none;align=center;verticalAlign=middle;whiteSpace=wrap;rounded=0;" parent="1" vertex="1">
          <mxGeometry x="168" y="260" width="60" height="30" as="geometry" />
        </mxCell>
        <mxCell id="kjkO8vURXtPyXDGjNqjl-94" value="$$\times&lt;br&gt;W_4$$" style="text;html=1;strokeColor=none;fillColor=none;align=center;verticalAlign=middle;whiteSpace=wrap;rounded=0;" parent="1" vertex="1">
          <mxGeometry x="188" y="320" width="60" height="30" as="geometry" />
        </mxCell>
        <mxCell id="J4pAW6Vi97vnWCnsXzpe-1" value="encode_edge:8*8*64*64" style="text;whiteSpace=wrap;" vertex="1" parent="1">
          <mxGeometry x="910" y="340" width="150" height="40" as="geometry" />
        </mxCell>
        <mxCell id="J4pAW6Vi97vnWCnsXzpe-2" value="sketch edge: 8*1*512*512 " style="text;whiteSpace=wrap;" vertex="1" parent="1">
          <mxGeometry x="990" y="445" width="160" height="30" as="geometry" />
        </mxCell>
        <mxCell id="J4pAW6Vi97vnWCnsXzpe-3" value="z: 8*4*64*64 after encoding&amp; nosing " style="text;whiteSpace=wrap;" vertex="1" parent="1">
          <mxGeometry x="840" y="220" width="240" height="20" as="geometry" />
        </mxCell>
        <mxCell id="J4pAW6Vi97vnWCnsXzpe-4" value="context_embed: 8*77*768" style="text;whiteSpace=wrap;" vertex="1" parent="1">
          <mxGeometry x="990" y="530" width="160" height="30" as="geometry" />
        </mxCell>
        <mxCell id="J4pAW6Vi97vnWCnsXzpe-9" value="Feat No. 0 : torch.Size([1, 320, 64, 64]) &#xa;Feat No. 1 : torch.Size([1, 640, 32, 32]) &#xa;Feat No. 2 : torch.Size([1, 1280, 16, 16]) &#xa;Feat No. 3 : torch.Size([1, 1280, 8, 8])" style="text;whiteSpace=wrap;" vertex="1" parent="1">
          <mxGeometry x="188" y="640" width="235" height="80" as="geometry" />
        </mxCell>
      </root>
    </mxGraphModel>
  </diagram>
</mxfile>
